P2
8 8
255
219 219 219 219 219 219 219 219
219 219 219 219 219 219 219 219
 18 141 216 211  38 172 216 210
180  28 160 160 128 196 203 198
202  80 128 196  36 160 200 196
202  80 128 195  36 159 200 195
176  31 182 197  54 129 199 154
 21 157 199 201 154  17  17  51
